<svg id="visual" viewBox="0 0 900 600" width="900" height="600" xmlns="http://www.w3.org/2000/svg" xmlns:xlink="http://www.w3.org/1999/xlink" version="1.1"><path d="M0 175L30 185C60 195 120 215 180 227C240 239 300 243 360 255C420 267 480 287 540 280C600 273 660 239 720 234C780 229 840 253 870 265L900 277L900 0L870 0C840 0 780 0 720 0C660 0 600 0 540 0C480 0 420 0 360 0C300 0 240 0 180 0C120 0 60 0 30 0L0 0Z" fill="#ffffff"></path><path d="M0 355L30 354C60 353 120 351 180 356C240 361 300 373 360 386C420 399 480 413 540 406C600 399 660 371 720 368C780 365 840 387 870 398L900 409L900 275L870 263C840 251 780 227 720 232C660 237 600 271 540 278C480 285 420 265 360 253C300 241 240 237 180 225C120 213 60 193 30 183L0 173Z" fill="#40449b"></path><path d="M0 601L30 601C60 601 120 601 180 601C240 601 300 601 360 601C420 601 480 601 540 601C600 601 660 601 720 601C780 601 840 601 870 601L900 601L900 407L870 396C840 385 780 363 720 366C660 369 600 397 540 404C480 411 420 397 360 384C300 371 240 359 180 354C120 349 60 351 30 352L0 353Z" fill="#ffffff"></path></svg>